<svg xmlns="http://www.w3.org/2000/svg" xmlns:xlink="http://www.w3.org/1999/xlink" width="500" zoomAndPan="magnify" viewBox="0 0 375 374.999991" height="500" preserveAspectRatio="xMidYMid meet" version="1.0"><defs><g/></defs><rect x="-37.5" width="450" fill="#ffffff" y="-37.499999" height="449.999989" fill-opacity="1"/><rect x="-37.5" width="450" fill="#00bf63" y="-37.499999" height="449.999989" fill-opacity="1"/><g fill="#ffffff" fill-opacity="1"><g transform="translate(32.082846, 320.114571)"><g><path d="M 287.96875 -188.90625 L 197.515625 -188.90625 C 195.867188 -201.207031 190.429688 -209.507812 181.203125 -213.8125 C 171.972656 -218.125 162.847656 -220.28125 153.828125 -220.28125 C 144.804688 -220.28125 136.394531 -218.125 128.59375 -213.8125 C 120.800781 -209.507812 116.90625 -203.253906 116.90625 -195.046875 C 116.90625 -188.898438 121.109375 -184.285156 129.515625 -181.203125 C 137.929688 -178.128906 148.800781 -175.671875 162.125 -173.828125 C 175.457031 -171.984375 189.609375 -169.625 204.578125 -166.75 C 219.554688 -163.875 233.710938 -159.359375 247.046875 -153.203125 C 260.378906 -147.054688 271.25 -138.34375 279.65625 -127.0625 C 288.070312 -115.78125 292.28125 -100.5 292.28125 -81.21875 C 292.28125 -59.882812 286.640625 -42.859375 275.359375 -30.140625 C 264.078125 -17.429688 248.382812 -8.203125 228.28125 -2.453125 C 208.175781 3.285156 185 6.15625 158.75 6.15625 C 132.082031 6.15625 107.976562 2.566406 86.4375 -4.609375 C 64.90625 -11.796875 47.578125 -23.285156 34.453125 -39.078125 C 21.328125 -54.867188 13.945312 -75.476562 12.3125 -100.90625 L 103.984375 -100.90625 C 103.984375 -87.375 107.265625 -77.632812 113.828125 -71.6875 C 120.390625 -65.738281 128.179688 -61.941406 137.203125 -60.296875 C 146.234375 -58.660156 154.03125 -57.84375 160.59375 -57.84375 C 171.257812 -57.84375 180.382812 -59.789062 187.96875 -63.6875 C 195.5625 -67.582031 199.359375 -73.222656 199.359375 -80.609375 C 199.359375 -90.046875 195.15625 -97.222656 186.75 -102.140625 C 178.34375 -107.066406 167.472656 -110.757812 154.140625 -113.21875 C 140.804688 -115.675781 126.648438 -118.132812 111.671875 -120.59375 C 96.703125 -123.0625 82.550781 -126.65625 69.21875 -131.375 C 55.882812 -136.09375 45.015625 -143.164062 36.609375 -152.59375 C 28.203125 -162.03125 24 -174.953125 24 -191.359375 C 24 -219.253906 34.867188 -240.582031 56.609375 -255.34375 C 78.347656 -270.113281 111.578125 -277.5 156.296875 -277.5 C 191.984375 -277.5 221.820312 -270.523438 245.8125 -256.578125 C 269.8125 -242.640625 283.863281 -220.082031 287.96875 -188.90625 Z M 287.96875 -188.90625 "/></g></g></g></svg>